<?xml version="1.0" encoding="utf-8"?>
<!-- Generator: Adobe Illustrator 16.0.0, SVG Export Plug-In . SVG Version: 6.00 Build 0)  -->
<!DOCTYPE svg PUBLIC "-//W3C//DTD SVG 1.1//EN" "http://www.w3.org/Graphics/SVG/1.1/DTD/svg11.dtd">
<svg version="1.1" id="レイヤー_1" xmlns="http://www.w3.org/2000/svg" xmlns:xlink="http://www.w3.org/1999/xlink" x="0px"
	 y="0px" width="484.097px" height="272.404px" viewBox="0 0 484.097 272.404" enable-background="new 0 0 484.097 272.404"
	 xml:space="preserve">
<g>
	<path fill="#231815" d="M73.775,91.835c0,10.708-8.68,19.389-19.389,19.389C43.68,111.222,35,102.543,35,91.835
		s8.68-19.39,19.387-19.39C65.096,72.445,73.775,81.127,73.775,91.835"/>
	<circle fill="none" stroke="#231815" stroke-width="0.844" stroke-miterlimit="10" cx="429.193" cy="91.834" r="19.389"/>
	<line fill="none" stroke="#231815" stroke-width="1.687" stroke-miterlimit="10" x1="96.324" y1="91.38" x2="389.919" y2="91.38"/>
	<path fill="none" stroke="#231815" stroke-width="1.687" stroke-linecap="round" stroke-miterlimit="10" d="M84.551,259.423
		c2.055-3.375,0.645-8.728-3.297-11.387c-3.941-2.658-9.277-2.437-13.678-0.638c-7.234,2.955-13.115,9.099-14.006,16.863
		c-0.199,1.742-0.17,3.955,1.469,5.838c0.826,0.951,2.203,1.566,3.432,1.84c6.865,1.523,13.688-2.342,19.6-6.254
		c9.197-6.082,18.223-12.66,25.344-21.078s12.258-18.903,12.535-29.928c0.062-2.479-0.312-5.322-2.361-6.717
		c-2.039-1.387-4.971-0.635-6.758,1.062c-1.787,1.701-2.689,4.109-3.471,6.449c-5.24,15.689-7.611,32.225-9.539,48.654
		c-0.234,2.016-0.408,4.807,0.814,6.426c2.113,2.803,6.508,1.738,9.693,0.268c7.719-3.561,15.061-7.934,21.869-13.021"/>
	
		<path fill="none" stroke="#231815" stroke-width="1.687" stroke-linecap="round" stroke-linejoin="round" stroke-miterlimit="10" d="
		M215.605,241.475c8.869,0,16.994,0.098,25.668,0.187c-5.994,0-7.02-3.494-7.738-5.082c-1.451-3.207-1.605-6.437-1.154-11.408
		c-0.451,6.479-1.035,10.336-1.693,14.924c-0.691,4.816-1.428,8.744-2.135,13.559c-0.756,5.125-1.779,9.312-2.141,13.564
		c-0.07,0.846-0.133,1.717,0.127,2.524c0.658,2.056,3.232,2.962,5.34,2.509c2.109-0.455,3.848-1.898,5.494-3.295"/>
	<path fill="none" stroke="#231815" stroke-width="1.687" stroke-linecap="round" stroke-miterlimit="10" d="M310.574,224.344
		c0.967-6.221,1.684-10.814,1.684-10.814"/>
	<path fill="none" stroke="#231815" stroke-width="1.687" stroke-linecap="round" stroke-miterlimit="10" d="M314.755,268.884
		c-1.646,1.396-3.383,2.84-5.494,3.295c-2.109,0.455-4.682-0.453-5.34-2.508c-0.26-0.808-0.199-1.681-0.127-2.525
		c0.359-4.252,1.385-8.367,2.139-13.49c0.381-2.592,1.885-11.598,3.582-22.506"/>
	<path fill="none" stroke="#231815" stroke-width="1.687" stroke-linecap="round" stroke-miterlimit="10" d="M168.832,251.604
		c-1.715-0.434-3.641,0.043-5.105,1.08c-1.715,1.213-2.863,3.092-3.605,5.06c-1.156,3.065-1.488,6.596-0.127,9.577
		c1.359,2.982,4.615,5.229,7.881,4.949c1.729-0.147,3.467-0.721,4.836-1.787c4.807-3.746,6.305-11.53,2.871-16.565
		c-0.902-1.322-2.666-2.521-3.996-1.629c-1.158,0.778-0.961,2.688,0.051,3.649c1.012,0.961,2.496,1.207,3.889,1.322
		c3.869,0.322,8.156-0.17,10.895-2.926"/>
	<path fill="#231815" d="M436.173,270.195c0,0.777-0.631,1.406-1.406,1.406s-1.406-0.629-1.406-1.406
		c0-0.774,0.631-1.405,1.406-1.405S436.173,269.421,436.173,270.195"/>
	
		<path fill="none" stroke="#231815" stroke-width="1.687" stroke-linecap="round" stroke-linejoin="round" stroke-miterlimit="10" d="
		M343.701,233.923c-2.854,14.317-4.738,23.75-7.533,38.371c1.061-3.654,1.152-4.746,2.213-8.4c1.424-4.897,2.445-9.91,4.502-14.578
		c1.385-3.143,3.086-6.211,5.551-8.602c2.465-2.392,5.785-4.056,9.219-3.951s6.879,2.232,7.975,5.486
		c0.883,2.621,0.209,5.479-0.439,8.168c-1.072,4.467-2.057,9.84-2.947,14.346c-0.266,1.316-0.518,2.684-0.205,3.988
		c0.385,1.621,1.68,2.989,3.273,3.465c1.596,0.475,3.432,0.035,4.637-1.111"/>
	<path fill="none" stroke="#231815" stroke-width="1.687" stroke-linecap="round" stroke-miterlimit="10" d="M412.298,240.699
		c-2.355-2.395-5.873-3.231-9.225-3.475c-3.006-0.217-5.949,0.717-8.512,2.307c-3.838,2.382-5.816,6.972-6.635,11.277
		c-0.586,3.078-0.93,6.217-0.627,9.334c0.307,3.119,1.447,6.246,3.682,8.441c2.43,2.391,5.912,3.453,9.314,3.672
		c4.477,0.287,9.467-1.064,11.855-4.859"/>
</g>
</svg>
