<?xml version="1.0" encoding="utf-8"?>
<!-- Generator: Adobe Illustrator 16.0.0, SVG Export Plug-In . SVG Version: 6.00 Build 0)  -->
<!DOCTYPE svg PUBLIC "-//W3C//DTD SVG 1.1//EN" "http://www.w3.org/Graphics/SVG/1.1/DTD/svg11.dtd">
<svg version="1.1" id="レイヤー_1" xmlns="http://www.w3.org/2000/svg" xmlns:xlink="http://www.w3.org/1999/xlink" x="0px"
	 y="0px" width="484.097px" height="272.404px" viewBox="0 0 484.097 272.404" enable-background="new 0 0 484.097 272.404"
	 xml:space="preserve">
<rect x="72.887" y="63.147" fill="#FFFFFF" width="128.606" height="54.508"/>
<polygon fill="#FFFFFF" points="1.919,178.247 59.426,164.804 59.426,128.219 1.919,141.405 "/>
<polygon fill="#FFFFFF" points="1.919,130.083 59.426,116.899 59.426,65.796 1.919,78.978 "/>
<polygon fill="#FFFFFF" points="1.919,67.749 59.426,54.565 59.426,2.192 1.919,2.192 "/>
<rect x="72.887" y="2.192" fill="#FFFFFF" width="127.646" height="52.358"/>
<polygon fill="#FFFFFF" points="375.11,1.919 356.117,41.509 407.015,41.509 422.837,1.919 "/>
<polygon fill="#FFFFFF" points="482.178,100.815 354.765,126.351 354.765,179.079 482.178,179.079 "/>
<polygon fill="#FFFFFF" points="482.178,48.545 354.765,48.545 354.765,115.314 482.178,89.778 "/>
<path d="M17.528,235.358l-2.903,14.852l-0.554,2.666l-0.622,4.03l-0.698,4.246c-0.013,0.063-0.03,0.172-0.047,0.325
	c-0.014,0.151-0.039,0.361-0.071,0.636c-0.271-2.08-0.573-4.069-0.899-5.965c-0.327-1.893-0.693-3.783-1.095-5.674l-3.26-15.116
	H3.108l-3.047,37.044h4.703l1.44-25.528c0.255,2.083,0.539,4.066,0.852,5.965c0.312,1.896,0.669,3.762,1.067,5.604l2.928,13.96
	h3.356l3.12-16.167l0.24-1.272l0.624-3.384c0.078-0.447,0.172-0.999,0.274-1.656c0.107-0.653,0.22-1.421,0.349-2.304l0.123-0.745
	c0.015,0.178,0.027,0.317,0.037,0.42c0.005,0.104,0.01,0.175,0.01,0.21l0.119,4.556l0.217,4.967c0,0.304,0.01,0.687,0.034,1.151
	c0.027,0.463,0.054,1.015,0.086,1.654l0.84,12.57h4.772l-3.405-37.044H17.528z"/>
<path d="M43.158,235.358l-8.063,37.046h4.8l1.414-7.222h7.346l1.391,7.222h4.942l-7.94-37.046H43.158z M42.007,261.319l0.911-4.748
	c0.481-2.562,0.896-4.982,1.247-7.26c0.354-2.279,0.642-4.531,0.864-6.753c0.464,4.556,1.065,8.844,1.802,12.858l1.103,5.902H42.007
	z"/>
<path d="M78.873,249.177c0,2.049,0.093,4.231,0.285,6.552c0.195,2.317,0.488,4.91,0.889,7.772
	c-1.104-4.733-2.375-9.186-3.814-13.362l-4.968-14.783H66.61v37.048h4.919l-0.265-16.148c0-0.462-0.003-0.877-0.014-1.247
	c-0.007-0.367-0.017-0.68-0.034-0.937l-0.266-4.58l-0.264-3.767c-0.017-0.211-0.04-0.463-0.071-0.757
	c-0.032-0.297-0.072-0.652-0.121-1.071c0.097,0.419,0.181,0.787,0.252,1.109c0.073,0.316,0.124,0.59,0.156,0.813
	c0.386,1.792,0.804,3.503,1.261,5.136c0.454,1.629,0.94,3.225,1.452,4.773l5.585,16.675h4.682v-37.048h-5.012V249.177z"/>
<path d="M148.08,235.358l-8.062,37.046h4.8l1.414-7.222h7.344l1.391,7.222h4.942l-7.94-37.046H148.08z M146.93,261.319l0.911-4.748
	c0.478-2.562,0.894-4.979,1.248-7.26c0.352-2.279,0.637-4.531,0.864-6.753c0.462,4.556,1.06,8.844,1.8,12.858l1.103,5.902H146.93z"
	/>
<polygon points="114.267,255.899 125.395,255.899 122.704,268.099 101.588,268.099 101.588,239.606 129.039,239.606 
	129.039,235.304 97.283,235.304 97.283,272.401 126.162,272.401 130.75,251.596 114.267,251.596 "/>
<path d="M205.968,235.343l-8.062,37.047h4.797l1.418-7.222h7.342l1.393,7.222h4.939l-7.94-37.047H205.968z M204.817,261.303
	l0.908-4.749c0.48-2.56,0.897-4.979,1.25-7.26c0.352-2.279,0.64-4.531,0.862-6.753c0.464,4.56,1.063,8.844,1.803,12.861l1.101,5.9
	H204.817z"/>
<polygon points="277.456,239.708 283.214,239.708 283.214,272.39 288.11,272.39 288.11,239.708 293.702,239.708 293.702,235.343 
	277.456,235.343 "/>
<path d="M230.109,272.39h4.306v-19.196h10.227l13.971,19.21h5.316l-13.967-19.21h14.058v-17.959h-33.91V272.39z M234.415,239.533
	h25.301v9.359h-25.301V239.533z"/>
<polygon points="344.17,249.697 336.854,249.697 336.854,235.208 331.862,235.208 331.862,272.251 336.854,272.251 336.854,253.922 
	344.17,253.922 344.17,272.251 349.16,272.251 349.16,235.208 344.17,235.208 "/>
<polygon points="407.873,239.574 413.631,239.574 413.631,272.251 418.526,272.251 418.526,239.574 424.117,239.574 
	424.117,235.208 407.873,235.208 "/>
<polygon points="439.652,272.251 452.918,272.251 452.918,268.029 444.638,268.029 444.638,255.384 451.982,255.384 
	451.982,251.163 444.638,251.163 444.638,239.43 452.918,239.43 452.918,235.208 439.652,235.208 "/>
<polygon points="475.175,235.356 470.184,235.356 470.184,272.402 483.332,272.402 483.332,268.179 475.175,268.179 "/>
<path d="M362.032,272.254h33.904v-37.098h-33.904V272.254z M366.333,239.458h25.3v28.492h-25.3V239.458z"/>
<polygon fill="#FFFFFF" points="138.564,160.743 171.179,179.079 200.621,179.079 200.621,164.45 176.376,152.57 200.621,138.793 
	200.621,127.45 72.886,127.45 72.886,138.793 97.128,152.57 72.886,164.45 72.886,179.079 102.324,179.079 134.677,160.743 "/>
<polygon fill="#FFFFFF" points="341.595,15.883 284.086,2.44 284.086,39.283 341.595,52.47 "/>
<polygon fill="#FFFFFF" points="341.595,63.789 284.086,50.605 284.086,101.71 341.595,114.895 "/>
<polygon fill="#FFFFFF" points="341.595,126.124 284.086,112.94 284.086,178.496 341.595,178.496 "/>
<path d="M111.415,118.615h2.263h1.919h44.284h1.919h2.262h1.921h36.47V63.147h-36.47h-1.921H161.8h-1.919h-44.284h-1.919h-2.263
	h-1.919H70.968v55.468h38.528H111.415z M72.887,65.067h36.609v51.628H72.887V65.067z M113.676,116.694h-2.262v-51.63h2.262V116.694z
	 M115.598,65.067h44.283v51.628h-44.283V65.067z M164.062,116.694h-2.264v-51.63h2.264V116.694z M200.534,116.694h-34.551v-51.63
	h34.551V116.694z"/>
<path d="M0,180.667l61.345-14.342v-40.513L0,139.875V180.667z M1.919,141.405l57.507-13.186v36.585L1.919,178.247V141.405z"/>
<path d="M0,132.491l61.345-14.063V63.384L0,77.448V132.491z M1.919,78.978l57.507-13.184v51.104L1.919,130.084V78.978z"/>
<path d="M0,70.157l61.345-14.062V0.274H0V70.157z M1.919,2.192h57.507v52.373L1.919,67.75V2.192z"/>
<path d="M202.45,30.574v-1.917v-2.264v-1.919V0.271H70.968v24.203v1.919v2.264v1.917v25.165H202.45V30.574z M200.533,53.818H72.887
	V30.574h127.646V53.818z M72.887,2.192h127.646v22.282H72.887V2.192z M72.887,26.393h127.646v2.264H72.887V26.393z"/>
<path d="M425.669,0h-51.768l-20.833,43.426h55.244L425.669,0z M356.117,41.509L375.11,1.921h47.728l-15.824,39.588H356.117z"/>
<path d="M355.097,124.326l-0.959,0.197l-0.335,0.077l-0.958,0.178v56.22h131.252V98.475l-129,25.854V124.326z M482.178,179.079
	H354.765v-52.728l127.413-25.536V179.079z"/>
<path d="M352.845,46.627v71.016l0.958-0.197l0.335-0.058l0.959-0.185l129-25.854V46.627H352.845z M482.178,89.778l-127.413,25.538
	V48.547h127.413V89.778z"/>
<path d="M70.967,139.908l22.058,12.536l-22.058,10.808V181h31.863l33.789-19.149l33.839,19.026l0.22,0.123h31.859v-17.749
	l-22.058-10.808l22.058-12.536v-14.377H70.967V139.908z M72.887,127.45h127.732v11.344l-24.243,13.776l24.243,11.88v14.629h-29.44
	l-32.615-18.336l36.035-20.256H98.643l36.036,20.256l-32.355,18.336H72.887V164.45l24.241-11.88l-24.241-13.776V127.45z
	 M167.271,142.403l-30.648,17.233l-30.649-17.233H167.271z"/>
<path d="M282.167,40.812l61.346,14.064V14.362l-61.346-14.34V40.812z M284.086,2.44l57.509,13.443V52.47l-57.509-13.187V2.44z"/>
<path d="M282.167,103.24l61.346,14.062V62.26l-61.346-14.063V103.24z M284.086,50.605l57.509,13.186v51.104l-57.509-13.183V50.605z"
	/>
<path d="M282.167,180.415h61.346v-55.821l-61.346-14.064V180.415z M284.086,112.94l57.509,13.185v52.371h-57.509V112.94z"/>
<g>
</g>
<g>
</g>
<g>
</g>
<g>
</g>
<g>
</g>
<g>
</g>
<g>
</g>
<g>
</g>
<g>
</g>
<g>
</g>
<g>
</g>
<g>
</g>
<g>
</g>
<g>
</g>
<g>
</g>
</svg>
